<svg viewBox="0 0 44 44" fill="none" xmlns="http://www.w3.org/2000/svg">
  <path fill-rule="evenodd" clip-rule="evenodd" d="M43.0834 3.66665C43.0834 2.65412 42.2625 1.83331 41.25 1.83331H2.75002C1.7375 1.83331 0.916687 2.65412 0.916687 3.66665V40.3333C0.916687 41.3458 1.7375 42.1666 2.75002 42.1666H41.25C42.2625 42.1666 43.0834 41.3458 43.0834 40.3333V3.66665Z" stroke="#15171e" stroke-width="1.5" stroke-linecap="round" stroke-linejoin="round"/>
  <path fill-rule="evenodd" clip-rule="evenodd" d="M37.5834 16.5C37.5834 17.0062 37.1729 17.4166 36.6667 17.4166H7.33335C6.82709 17.4166 6.41669 17.0062 6.41669 16.5V8.24998C6.41669 7.74372 6.82709 7.33331 7.33335 7.33331H36.6667C37.1729 7.33331 37.5834 7.74372 37.5834 8.24998V16.5Z" stroke="#15171e" stroke-width="1.5" stroke-linecap="round" stroke-linejoin="round"/>
  <path d="M6.41669 22.9167H19.25" stroke="#15171e" stroke-width="1.5" stroke-linecap="round" stroke-linejoin="round"/>
  <path d="M6.41669 28.4167H19.25" stroke="#15171e" stroke-width="1.5" stroke-linecap="round" stroke-linejoin="round"/>
  <path d="M6.41669 33.9167H19.25" stroke="#15171e" stroke-width="1.5" stroke-linecap="round" stroke-linejoin="round"/>
  <path d="M24.75 22.9167H37.5833" stroke="#15171e" stroke-width="1.5" stroke-linecap="round" stroke-linejoin="round"/>
  <path d="M24.75 28.4167H37.5833" stroke="#15171e" stroke-width="1.5" stroke-linecap="round" stroke-linejoin="round"/>
  <path d="M24.75 33.9167H37.5833" stroke="#15171e" stroke-width="1.5" stroke-linecap="round" stroke-linejoin="round"/>
</svg>